<svg width="32" height="32" viewBox="0 0 40 41" fill="none" xmlns="http://www.w3.org/2000/svg">
<mask id="mask0_219_126" style="mask-type:alpha" maskUnits="userSpaceOnUse" x="0" y="0" width="40" height="41">
<rect y="0.901611" width="40" height="40" fill="#232323"/>
</mask>
<g mask="url(#mask0_219_126)">
<path d="M7.77792 35.9016C7.02792 35.9016 6.37736 35.6262 5.82625 35.0754C5.27542 34.5243 5 33.8737 5 33.1237V8.67953C5 7.92953 5.27542 7.27897 5.82625 6.72786C6.37736 6.17703 7.02792 5.90161 7.77792 5.90161H19.4167V8.67953H7.77792V33.1237H32.2221V21.4849H35V33.1237C35 33.8737 34.7246 34.5243 34.1737 35.0754C33.6226 35.6262 32.9721 35.9016 32.2221 35.9016H7.77792ZM16 26.8737L14.0554 24.9016L30.2779 8.67953H22.1946V5.90161H35V18.707H32.2221V10.6516L16 26.8737Z" fill="#EEEEEE"/>
</g>
</svg>
